<svg width="254" height="254" viewBox="0 0 254 254" fill="none" xmlns="http://www.w3.org/2000/svg">
<path d="M33.5752 185.365C24.8664 205.937 42.4104 227.981 64.4126 224.112L73.6694 222.484C79.1131 221.526 84.7094 221.939 89.9537 223.685L110.842 230.638C115.684 232.25 120.097 234.941 123.748 238.506L131.794 246.362C144.236 258.512 164.916 254.962 172.594 239.358C177.868 228.638 189.865 223 201.484 225.782L207.195 227.149C221.799 230.645 236.917 223.812 243.944 210.541L247.938 202.998C258.69 182.691 251.974 157.528 232.532 145.28L210.678 131.512C192.444 120.025 180.337 100.952 177.701 79.5622L176.396 68.9748C171.395 28.3886 135.938 -1.47117 95.0929 0.505607C84.1612 1.03466 73.4628 3.85497 63.6909 8.78372L41.5426 19.955C37.7325 21.8768 34.1773 24.2669 30.9596 27.0699L26.2727 31.1527C18.0773 38.2919 13.373 48.6287 13.373 59.4976C13.373 62.6252 12.9827 65.7406 12.2111 68.7715L7.85767 85.8724C7.22231 88.3681 6.33544 90.7931 5.21067 93.1098L1.82219 100.089C0.635812 102.533 0.225026 105.281 0.644924 107.965C1.54463 113.716 6.07428 118.216 11.8306 119.078L13.1617 119.277C17.1618 119.877 20.7562 122.05 23.1447 125.314L28.6042 132.775C33.283 139.17 35.8051 146.887 35.8051 154.81L35.8051 174.377C35.8051 178.152 35.0468 181.889 33.5752 185.365Z" fill="#3462C5"/>
</svg>
